<svg xmlns="http://www.w3.org/2000/svg" width="512" height="512" viewBox="0 0 512 512" role="img" aria-label="Mirch Masala Admin">
  <rect width="512" height="512" rx="112" fill="#0d0f12"/>
  <rect x="48" y="48" width="416" height="416" rx="92" fill="#ea580c"/>
  <path d="M301 136c59 35 72 104 29 160-38 51-106 75-179 80 48-48 51-99 45-144-8-61 40-117 105-96Z" fill="#22c55e"/>
  <path d="M195 344c67-16 120-53 129-117 5-40-11-72-40-91 56 8 104 64 91 128-13 72-85 125-179 146-32 8-56-8-61-32 21-11 42-21 60-34Z" fill="#991b1b" opacity=".42"/>
  <path d="M190 371c75-11 139-53 157-120 13-51-8-93-46-115" fill="none" stroke="#fff7ed" stroke-width="32" stroke-linecap="round"/>
  <circle cx="181" cy="373" r="30" fill="#fff7ed"/>
  <path d="M304 134c19-40 48-59 88-56" fill="none" stroke="#16a34a" stroke-width="30" stroke-linecap="round"/>
</svg>
